<?xml version="1.0" encoding="UTF-8"?>
<svg width="7px" height="16px" viewBox="0 0 7 16" version="1.1" xmlns="http://www.w3.org/2000/svg" xmlns:xlink="http://www.w3.org/1999/xlink">
    <!-- Generator: Sketch 49.1 (51147) - http://www.bohemiancoding.com/sketch -->
    <title>DOWN</title>
    <desc>Created with Sketch.</desc>
    <defs></defs>
    <g id="Page-1" stroke="none" stroke-width="1" fill="none" fill-rule="evenodd">
        <g id="Screen-3---Supply-Chain-Screen" transform="translate(-816.000000, -790.000000)">
            <g id="Truck-Modal">
                <g id="Total-Hours-Box" transform="translate(727.000000, 602.000000)">
                    <g id="total-hours-text" transform="translate(40.000000, 99.000000)">
                        <g id="DOWN" transform="translate(52.500000, 97.000000) scale(1, -1) translate(-52.500000, -97.000000) translate(49.000000, 89.000000)">
                            <g id="Group">
                                <g id="a-link" transform="translate(3.500000, 8.000000) scale(-1, 1) rotate(-180.000000) translate(-3.500000, -8.000000) translate(0.000000, -0.000000)" fill="#FD1B1B">
                                    <polygon id="a" points="6.90410959 12.5999985 6.90410959 11.5 3.88221318 14 3.8822131 0 3.02054795 0 3.02054795 14 0 11.5 0 12.5999985 3.45205479 15.5"></polygon>
                                </g>
                                <polygon id="a" points="6.90410959 12.5999985 6.90410959 11.5 3.88221318 14 3.8822131 0 3.02054795 0 3.02054795 14 0 11.5 0 12.5999985 3.45205479 15.5"></polygon>
                            </g>
                        </g>
                    </g>
                </g>
            </g>
        </g>
    </g>
</svg>