<?xml version="1.0" encoding="UTF-8"?>
<svg width="50px" height="42px" viewBox="0 0 50 42" version="1.1" xmlns="http://www.w3.org/2000/svg" xmlns:xlink="http://www.w3.org/1999/xlink">
    <!-- Generator: Sketch 49.1 (51147) - http://www.bohemiancoding.com/sketch -->
    <title>Shape</title>
    <desc>Created with Sketch.</desc>
    <defs></defs>
    <g id="Page-1" stroke="none" stroke-width="1" fill="none" fill-rule="evenodd">
        <g id="Notes" transform="translate(-704.000000, -311.000000)" fill="#FFFFFF" fill-rule="nonzero">
            <g id="noun_76807_cc" transform="translate(704.000000, 311.000000)">
                <path d="M37.9347826,12.3913043 L37.9347826,1.41304348 C37.9347826,0.652173913 37.3369565,0.0543478261 36.576087,0.0543478261 C35.8152174,0.0543478261 35.2173913,0.652173913 35.2173913,1.41304348 L35.2173913,9.67391304 L25.9782609,0.434782609 C25.4347826,-0.108695652 24.5652174,-0.108695652 24.076087,0.434782609 L0.923913043,23.5326087 C0.543478261,23.9130435 0.434782609,24.5108696 0.652173913,25 C0.869565217,25.4891304 1.35869565,25.8152174 1.90217391,25.8152174 L8.26086957,25.8152174 L8.26086957,39.8369565 C8.26086957,40.5978261 8.85869565,41.1956522 9.61956522,41.1956522 L40.4347826,41.1956522 C41.1956522,41.1956522 41.7934783,40.5978261 41.7934783,39.8369565 L41.7934783,25.8695652 L48.1521739,25.8695652 C48.6956522,25.8695652 49.1847826,25.5434783 49.4021739,25.0543478 C49.6195652,24.5652174 49.5108696,23.9673913 49.1304348,23.5869565 L37.9347826,12.3913043 Z M27.5,38.5326087 L22.5,38.5326087 L22.5,25.8695652 L27.5,25.8695652 L27.5,38.5326087 Z M40.3804348,23.1521739 C39.6195652,23.1521739 39.0217391,23.75 39.0217391,24.5108696 L39.0217391,38.5326087 L30.2173913,38.5326087 L30.2173913,24.5108696 C30.2173913,23.75 29.6195652,23.1521739 28.8586957,23.1521739 L21.1413043,23.1521739 C20.3804348,23.1521739 19.7826087,23.75 19.7826087,24.5108696 L19.7826087,38.5326087 L10.9782609,38.5326087 L10.9782609,24.5108696 C10.9782609,23.75 10.3804348,23.1521739 9.61956522,23.1521739 L5.2173913,23.1521739 L25,3.31521739 L44.8369565,23.1521739 L40.3804348,23.1521739 Z" id="Shape"></path>
            </g>
        </g>
    </g>
</svg>