<?xml version="1.0" encoding="UTF-8"?>
<svg width="50px" height="35px" viewBox="0 0 50 35" version="1.1" xmlns="http://www.w3.org/2000/svg" xmlns:xlink="http://www.w3.org/1999/xlink">
    <!-- Generator: Sketch 49.1 (51147) - http://www.bohemiancoding.com/sketch -->
    <title>Group</title>
    <desc>Created with Sketch.</desc>
    <defs></defs>
    <g id="Page-1" stroke="none" stroke-width="1" fill="none" fill-rule="evenodd">
        <g id="Notes" transform="translate(-701.000000, -259.000000)" fill="#FFFFFF" fill-rule="nonzero">
            <g id="noun_62212_cc" transform="translate(701.000000, 259.000000)">
                <g id="Group">
                    <path d="M42.4211111,26.8422656 L27.4633333,26.8422656 C25.22,26.8422656 23.395,28.63875 23.395,30.8470312 C23.395,33.0553125 25.22,34.8517969 27.4633333,34.8517969 L42.4205556,34.8517969 C44.6633333,34.8517969 46.4883333,33.0553125 46.4883333,30.8470312 C46.4883333,28.63875 44.6638889,26.8422656 42.4211111,26.8422656 Z M42.4211111,33.2117187 L27.4633333,33.2117187 C26.1388889,33.2117187 25.0616667,32.1513281 25.0616667,30.8475781 C25.0616667,29.5438281 26.1388889,28.4834375 27.4633333,28.4834375 L42.4205556,28.4834375 C43.745,28.4834375 44.8216667,29.5438281 44.8216667,30.8475781 C44.8216667,32.1513281 43.745,33.2117187 42.4211111,33.2117187 Z" id="Shape"></path>
                    <path d="M42.4305556,28.818125 C41.2938889,28.818125 40.3688889,29.7286719 40.3688889,30.8475781 C40.3688889,31.9664844 41.2938889,32.8770312 42.4305556,32.8770312 C43.5672222,32.8770312 44.4922222,31.9664844 44.4922222,30.8475781 C44.4922222,29.7286719 43.5672222,28.818125 42.4305556,28.818125 Z M42.4305556,31.2358594 C42.2127778,31.2358594 42.0355556,31.0614063 42.0355556,30.8470313 C42.0355556,30.6326563 42.2127778,30.4582031 42.4305556,30.4582031 C42.6483333,30.4582031 42.8255556,30.6326563 42.8255556,30.8470313 C42.8255556,31.0614063 42.6483333,31.2358594 42.4305556,31.2358594 Z" id="Shape"></path>
                    <path d="M27.4538889,28.818125 C26.3172222,28.818125 25.3922222,29.7286719 25.3922222,30.8475781 C25.3922222,31.9664844 26.3172222,32.8770312 27.4538889,32.8770312 C28.5905556,32.8770312 29.5155556,31.9664844 29.5155556,30.8475781 C29.5155556,29.7286719 28.5905556,28.818125 27.4538889,28.818125 Z M27.4538889,31.2358594 C27.2361111,31.2358594 27.0588889,31.0614063 27.0588889,30.8470313 C27.0588889,30.6326563 27.2361111,30.4582031 27.4538889,30.4582031 C27.6716667,30.4582031 27.8488889,30.6326563 27.8488889,30.8470313 C27.8488889,31.0614063 27.6716667,31.2358594 27.4538889,31.2358594 Z" id="Shape"></path>
                    <ellipse id="Oval" cx="15.5983333" cy="25.4745312" rx="1" ry="1"></ellipse>
                    <ellipse id="Oval" cx="15.5983333" cy="27.9321875" rx="1" ry="1"></ellipse>
                    <ellipse id="Oval" cx="15.5983333" cy="31.0958594" rx="1.16944444" ry="1.15117187"></ellipse>
                    <path d="M15.5983333,33.2002344 L0.899444444,33.2002344 C0.438888889,33.2002344 0.0661111111,33.5677344 0.0661111111,34.0205469 C0.0661111111,34.4733594 0.438888889,34.8408594 0.899444444,34.8408594 L15.5983333,34.8408594 C16.0588889,34.8408594 16.4316667,34.4733594 16.4316667,34.0205469 C16.4316667,33.5677344 16.0588889,33.2002344 15.5983333,33.2002344 Z" id="Shape"></path>
                    <path d="M46.4277778,0.14765625 C44.4944444,0.14765625 42.9211111,1.69640625 42.9211111,3.59953125 C42.9211111,4.25414063 43.1105556,4.865 43.4338889,5.38671875 L40.0544444,8.71335937 C38.6411111,7.62835938 36.87,6.97484375 34.9427778,6.97484375 C33.0588889,6.97484375 31.325,7.60046875 29.9277778,8.64226563 L26.6211111,5.38726563 C26.9438889,4.865 27.1333333,4.2546875 27.1333333,3.60007813 C27.1333333,1.69695313 25.56,0.148203125 23.6266667,0.148203125 C21.6933333,0.148203125 20.12,1.69695313 20.12,3.60007813 C20.12,5.50320313 21.6933333,7.05195313 23.6266667,7.05195313 C24.2916667,7.05195313 24.9116667,6.86546875 25.4422222,6.54773438 L28.7038889,9.7584375 C27.5788889,11.011875 26.8466667,12.6049219 26.6672222,14.3582031 L25.5538889,14.3582031 C25.0933333,14.3582031 24.7205556,14.7251563 24.7205556,15.1785156 L24.7205556,15.3480469 L19.7772222,12.8275 C19.78,12.7864844 19.7894444,12.7476563 19.7894444,12.7066406 C19.7894444,11.5877344 18.8644444,10.6771875 17.7277778,10.6771875 C16.5911111,10.6771875 15.6666667,11.5866406 15.6666667,12.7055469 C15.6666667,13.2502344 15.8883333,13.7435156 16.245,14.1082812 L14.9677778,17.180625 L13.7933333,17.180625 C13.3327778,17.180625 12.96,17.5475781 12.96,18.0009375 L12.96,23.17 C12.96,23.6228125 13.3327778,23.9903125 13.7933333,23.9903125 L17.4044444,23.9903125 C17.865,23.9903125 18.2377778,23.6228125 18.2377778,23.17 L18.2377778,18.0009375 C18.2377778,17.5475781 17.865,17.180625 17.4044444,17.180625 L16.7683333,17.180625 L17.7877778,14.7284375 C18.2505556,14.7153125 18.6711111,14.5490625 19.0094444,14.2821875 L24.7211111,17.1948437 L24.7211111,17.4584375 C24.7211111,17.9117969 25.0938889,18.27875 25.5544444,18.27875 L26.6322222,18.27875 L26.6322222,25.6467969 C26.6322222,26.0996094 27.005,26.4671094 27.4655556,26.4671094 L42.4188889,26.4671094 C42.8788889,26.4671094 43.2522222,26.0996094 43.2522222,25.6467969 L43.2522222,18.2792969 L44.33,18.2792969 C44.79,18.2792969 45.1633333,17.9123437 45.1633333,17.4589844 L45.1633333,15.1779687 C45.1633333,14.7246094 44.79,14.3576562 44.33,14.3576562 L43.2177778,14.3576562 C43.0433333,12.6448437 42.3422222,11.0846094 41.2611111,9.84484375 L44.6116667,6.54664062 C45.1422222,6.864375 45.7622222,7.05085937 46.4272222,7.05085937 C48.3605556,7.05085937 49.9338889,5.50210937 49.9338889,3.59898437 C49.9338889,1.69640625 48.3611111,0.14765625 46.4277778,0.14765625 Z M23.6266667,5.41078125 C22.6122222,5.41078125 21.7866667,4.59867188 21.7866667,3.59953125 C21.7866667,2.60039062 22.6122222,1.78828125 23.6266667,1.78828125 C24.6411111,1.78828125 25.4666667,2.6009375 25.4666667,3.59953125 C25.4666667,4.598125 24.6411111,5.41078125 23.6266667,5.41078125 Z M16.5705556,22.3496875 L14.6261111,22.3496875 L14.6261111,18.82125 L16.5705556,18.82125 L16.5705556,22.3496875 Z M17.7283333,12.3167188 C17.9461111,12.3167188 18.1233333,12.4911719 18.1233333,12.7055469 C18.1233333,12.9199219 17.9461111,13.0938281 17.7283333,13.0938281 C17.5105556,13.0938281 17.3333333,12.919375 17.3333333,12.7055469 C17.3333333,12.4911719 17.5105556,12.3167188 17.7283333,12.3167188 Z M41.5855556,24.8270312 L28.2988889,24.8270312 L28.2988889,18.2792969 L41.5855556,18.2792969 L41.5855556,24.8270312 Z M43.4966667,15.9982813 L43.4966667,16.6386719 L42.4188889,16.6386719 L27.4655556,16.6386719 L26.3877778,16.6386719 L26.3877778,15.9982813 L43.4966667,15.9982813 Z M41.5416667,14.3576563 L28.3427778,14.3576563 C28.7555556,11.1267187 31.5494444,8.61546875 34.9422222,8.61546875 C38.335,8.61546875 41.1288889,11.1267187 41.5416667,14.3576563 Z M46.4277778,5.41078125 C45.4133333,5.41078125 44.5877778,4.59867188 44.5877778,3.59953125 C44.5877778,2.60039062 45.4133333,1.78828125 46.4277778,1.78828125 C47.4422222,1.78828125 48.2677778,2.6009375 48.2677778,3.59953125 C48.2677778,4.598125 47.4422222,5.41078125 46.4277778,5.41078125 Z" id="Shape"></path>
                </g>
            </g>
        </g>
    </g>
</svg>