<?xml version="1.0" encoding="UTF-8"?>
<svg width="64px" height="64px" viewBox="0 0 64 64" version="1.1" xmlns="http://www.w3.org/2000/svg" xmlns:xlink="http://www.w3.org/1999/xlink">
    <!-- Generator: Sketch 49.3 (51167) - http://www.bohemiancoding.com/sketch -->
    <title>noun_1428230_cc</title>
    <desc>Created with Sketch.</desc>
    <defs>
        <linearGradient x1="0%" y1="0%" x2="98.7364477%" y2="98.7364477%" id="linearGradient-1">
            <stop stop-color="#E458FC" offset="0%"></stop>
            <stop stop-color="#1D1279" offset="100%"></stop>
        </linearGradient>
    </defs>
    <g id="Page-1" stroke="none" stroke-width="1" fill="none" fill-rule="evenodd">
        <g id="Screen-3---Supply-Chain-Screen" transform="translate(-1186.000000, -460.000000)" fill="url(#linearGradient-1)" fill-rule="nonzero">
            <g id="noun_1428230_cc" transform="translate(1186.000000, 460.000000)">
                <g id="Group">
                    <path d="M57.1841923,46.7692308 L62.7844038,41.1249231 C63.7393462,40.1624615 63.7393462,38.6067692 62.7844038,37.6443077 C61.8294615,36.6818462 60.2859231,36.6818462 59.3309808,37.6443077 L53.7307692,43.2886154 L48.1305577,37.6443077 C47.1756154,36.6818462 45.6320769,36.6818462 44.6771346,37.6443077 C43.7221923,38.6067692 43.7221923,40.1624615 44.6771346,41.1249231 L50.2773462,46.7692308 L44.6771346,52.4135385 C43.7221923,53.376 43.7221923,54.9316923 44.6771346,55.8941538 C45.1533846,56.3741538 45.7786154,56.6153846 46.4038462,56.6153846 C47.0290769,56.6153846 47.6543077,56.3741538 48.1305577,55.8941538 L53.7307692,50.2498462 L59.3309808,55.8941538 C59.8072308,56.3741538 60.4324615,56.6153846 61.0576923,56.6153846 C61.6829231,56.6153846 62.3081538,56.3741538 62.7844038,55.8941538 C63.7393462,54.9316923 63.7393462,53.376 62.7844038,52.4135385 L57.1841923,46.7692308 Z" id="Shape"></path>
                    <path d="M39.0769231,0 C33.6891923,0 29.3076923,4.416 29.3076923,9.84615385 C29.3076923,11.2049231 30.4018462,12.3076923 31.75,12.3076923 C33.0981538,12.3076923 34.1923077,11.2049231 34.1923077,9.84615385 C34.1923077,7.13107692 36.3830577,4.92307692 39.0769231,4.92307692 C40.4275192,4.92307692 41.5192308,3.82030769 41.5192308,2.46153846 C41.5192308,1.10276923 40.4275192,0 39.0769231,0 Z" id="Shape"></path>
                    <path d="M46.4038462,4.92307692 C49.0977115,4.92307692 51.2884615,7.13107692 51.2884615,9.84615385 C51.2884615,11.2049231 52.3801731,12.3076923 53.7307692,12.3076923 C55.0813654,12.3076923 56.1730769,11.2049231 56.1730769,9.84615385 C56.1730769,4.416 51.7915769,0 46.4038462,0 C45.05325,0 43.9615385,1.10276923 43.9615385,2.46153846 C43.9615385,3.82030769 45.05325,4.92307692 46.4038462,4.92307692 Z" id="Shape"></path>
                    <path d="M31.75,51.6923077 C30.4018462,51.6923077 29.3076923,52.7926154 29.3076923,54.1538462 C29.3076923,56.8689231 27.1169423,59.0769231 24.4230769,59.0769231 C23.0749231,59.0769231 21.9807692,60.1772308 21.9807692,61.5384615 C21.9807692,62.8996923 23.0749231,64 24.4230769,64 C29.8108077,64 34.1923077,59.584 34.1923077,54.1538462 C34.1923077,52.7926154 33.0981538,51.6923077 31.75,51.6923077 Z" id="Shape"></path>
                    <path d="M17.0961538,59.0769231 C14.4022885,59.0769231 12.2115385,56.8689231 12.2115385,54.1538462 C12.2115385,52.7926154 11.1173846,51.6923077 9.76923077,51.6923077 C8.42107692,51.6923077 7.32692308,52.7926154 7.32692308,54.1538462 C7.32692308,59.584 11.7084231,64 17.0961538,64 C18.4443077,64 19.5384615,62.8996923 19.5384615,61.5384615 C19.5384615,60.1772308 18.4443077,59.0769231 17.0961538,59.0769231 Z" id="Shape"></path>
                    <path d="M56.1730769,17.2307692 C56.1730769,15.872 55.0813654,14.7692308 53.7307692,14.7692308 C52.3801731,14.7692308 51.2884615,15.872 51.2884615,17.2307692 L51.2884615,22.1538462 C51.2884615,23.5126154 52.3801731,24.6153846 53.7307692,24.6153846 C55.0813654,24.6153846 56.1730769,23.5126154 56.1730769,22.1538462 L56.1730769,17.2307692 Z" id="Shape"></path>
                    <path d="M31.75,14.7692308 C30.4018462,14.7692308 29.3076923,15.872 29.3076923,17.2307692 L29.3076923,22.1538462 C29.3076923,23.5126154 30.4018462,24.6153846 31.75,24.6153846 C33.0981538,24.6153846 34.1923077,23.5126154 34.1923077,22.1538462 L34.1923077,17.2307692 C34.1923077,15.872 33.0981538,14.7692308 31.75,14.7692308 Z" id="Shape"></path>
                    <path d="M31.75,39.3846154 C30.4018462,39.3846154 29.3076923,40.4849231 29.3076923,41.8461538 L29.3076923,46.7692308 C29.3076923,48.1304615 30.4018462,49.2307692 31.75,49.2307692 C33.0981538,49.2307692 34.1923077,48.1304615 34.1923077,46.7692308 L34.1923077,41.8461538 C34.1923077,40.4849231 33.0981538,39.3846154 31.75,39.3846154 Z" id="Shape"></path>
                    <path d="M7.32692308,46.7692308 C7.32692308,48.1304615 8.42107692,49.2307692 9.76923077,49.2307692 C11.1173846,49.2307692 12.2115385,48.1304615 12.2115385,46.7692308 L12.2115385,41.8461538 C12.2115385,40.4849231 11.1173846,39.3846154 9.76923077,39.3846154 C8.42107692,39.3846154 7.32692308,40.4849231 7.32692308,41.8461538 L7.32692308,46.7692308 Z" id="Shape"></path>
                    <path d="M9.76923077,36.9230769 C11.1173846,36.9230769 12.2115385,35.8227692 12.2115385,34.4615385 L12.2115385,29.5384615 C12.2115385,28.1796923 11.1173846,27.0769231 9.76923077,27.0769231 C8.42107692,27.0769231 7.32692308,28.1796923 7.32692308,29.5384615 L7.32692308,34.4615385 C7.32692308,35.8227692 8.42107692,36.9230769 9.76923077,36.9230769 Z" id="Shape"></path>
                    <path d="M9.76923077,4.92307692 C4.3815,4.92307692 0,9.33907692 0,14.7692308 C0,20.1993846 4.3815,24.6153846 9.76923077,24.6153846 C15.1569615,24.6153846 19.5384615,20.1993846 19.5384615,14.7692308 C19.5384615,9.33907692 15.1569615,4.92307692 9.76923077,4.92307692 Z M9.76923077,19.6923077 C7.07536538,19.6923077 4.88461538,17.4843077 4.88461538,14.7692308 C4.88461538,12.0541538 7.07536538,9.84615385 9.76923077,9.84615385 C12.4630962,9.84615385 14.6538462,12.0541538 14.6538462,14.7692308 C14.6538462,17.4843077 12.4630962,19.6923077 9.76923077,19.6923077 Z" id="Shape"></path>
                    <path d="M31.75,27.0769231 C30.4018462,27.0769231 29.3076923,28.1796923 29.3076923,29.5384615 L29.3076923,34.4615385 C29.3076923,35.8227692 30.4018462,36.9230769 31.75,36.9230769 C33.0981538,36.9230769 34.1923077,35.8227692 34.1923077,34.4615385 L34.1923077,29.5384615 C34.1923077,28.1796923 33.0981538,27.0769231 31.75,27.0769231 Z" id="Shape"></path>
                    <path d="M53.7307692,27.0769231 C52.3801731,27.0769231 51.2884615,28.1796923 51.2884615,29.5384615 L51.2884615,34.4615385 C51.2884615,35.8227692 52.3801731,36.9230769 53.7307692,36.9230769 C55.0813654,36.9230769 56.1730769,35.8227692 56.1730769,34.4615385 L56.1730769,29.5384615 C56.1730769,28.1796923 55.0813654,27.0769231 53.7307692,27.0769231 Z" id="Shape"></path>
                </g>
            </g>
        </g>
    </g>
</svg>