<?xml version="1.0" encoding="UTF-8"?>
<svg width="70px" height="47px" viewBox="0 0 70 47" version="1.1" xmlns="http://www.w3.org/2000/svg" xmlns:xlink="http://www.w3.org/1999/xlink">
    <!-- Generator: Sketch 49.1 (51147) - http://www.bohemiancoding.com/sketch -->
    <title>Group</title>
    <desc>Created with Sketch.</desc>
    <defs>
        <linearGradient x1="127.238182%" y1="44.5281804%" x2="0%" y2="44.5281804%" id="linearGradient-1">
            <stop stop-color="#4776E6" offset="0%"></stop>
            <stop stop-color="#8E54E9" offset="100%"></stop>
        </linearGradient>
    </defs>
    <g id="Page-1" stroke="none" stroke-width="1" fill="none" fill-rule="evenodd">
        <g id="Notes" transform="translate(-479.000000, -361.000000)" fill="url(#linearGradient-1)" fill-rule="nonzero">
            <g id="noun_1221123_cc" transform="translate(479.000000, 361.000000)">
                <g id="Group">
                    <path d="M2.37096774,46.4032258 L3.16129032,46.1774194 C2.25806452,40.983871 2.59677419,35.7903226 4.06451613,31.1612903 C4.74193548,28.7903226 5.75806452,26.6451613 7,24.5 C8.24193548,22.4677419 9.70967742,20.6612903 11.2903226,18.9677419 C11.8548387,18.4032258 12.3064516,17.9516129 12.8709677,17.5 L9.48387097,12.0806452 C4.51612903,17.5 1.12903226,24.5 0.451612903,32.4032258 C6.10622664e-16,36.9193548 0.451612903,41.2096774 1.69354839,45.2741935 C1.80645161,45.7258065 2.03225806,46.0645161 2.25806452,46.516129 L2.37096774,46.516129 L2.37096774,46.4032258 Z" id="Shape"></path>
                    <path d="M58.2580645,9.82258065 C56.7903226,8.46774194 55.2096774,7.22580645 53.516129,6.20967742 C49,3.38709677 43.8064516,1.58064516 38.2741935,1.01612903 C30.1451613,0.225806452 22.3548387,2.37096774 15.9193548,6.66129032 L19.8709677,13.0967742 C20.7741935,12.7580645 21.6774194,12.3064516 22.5806452,12.0806452 C24.6129032,11.4032258 26.6451613,11.0645161 28.7903226,10.8387097 C30.8225806,10.7258065 32.8548387,10.7258065 34.8870968,11.0645161 C38.8387097,11.7419355 42.4516129,13.3225806 45.3870968,15.5806452 C45.7258065,15.9193548 46.1774194,16.1451613 46.516129,16.483871 L58.2580645,9.82258065 Z" id="Shape"></path>
                    <path d="M69.5483871,38.7258065 C69.3225806,41.4354839 68.7580645,44.1451613 67.8548387,46.6290323 L67.516129,46.516129 L51.0322581,41.3225806 C51.7096774,40.1935484 52.3870968,38.8387097 52.7258065,37.483871 C53.1774194,36.1290323 53.4032258,34.5483871 53.516129,33.0806452 C53.516129,32.516129 53.516129,31.8387097 53.516129,31.2741935 L65.1451613,18.516129 C68.5322581,24.3870968 70.2258065,31.3870968 69.5483871,38.7258065 Z" id="Shape"></path>
                    <path d="M61.7580645,14.2258065 C61.6451613,13.8870968 61.1935484,13.8870968 60.9677419,14 L30.5967742,30.8225806 C30.0322581,31.1612903 29.4677419,31.6129032 29.016129,32.0645161 C26.6451613,34.6612903 26.8709677,38.6129032 29.4677419,40.983871 C32.0645161,43.3548387 36.016129,43.1290323 38.3870968,40.5322581 L61.7580645,14.9032258 C61.8709677,14.6774194 61.983871,14.4516129 61.7580645,14.2258065 Z M33.3064516,39.8548387 C31.5,39.7419355 30.2580645,38.1612903 30.3709677,36.3548387 C30.483871,34.5483871 32.0645161,33.3064516 33.8709677,33.4193548 C35.6774194,33.5322581 36.9193548,35.1129032 36.8064516,36.9193548 C36.6935484,38.7258065 35.1129032,40.0806452 33.3064516,39.8548387 Z" id="Shape"></path>
                </g>
            </g>
        </g>
    </g>
</svg>