<?xml version="1.0" encoding="utf-8"?>
<!-- Generator: Adobe Illustrator 22.1.0, SVG Export Plug-In . SVG Version: 6.00 Build 0)  -->
<svg version="1.1" id="Layer_1" xmlns="http://www.w3.org/2000/svg" xmlns:xlink="http://www.w3.org/1999/xlink" x="0px" y="0px"
	 viewBox="0 0 63.9 53.3" style="enable-background:new 0 0 63.9 53.3;" xml:space="preserve" style="position:relative; top: 3px; left: -7px;">
<g>
	<path fill="#ffffff" d="M32,0C19,0,8.2,9.1,5.7,21.3c-0.1,0.4,0.1,1,0.6,1s0.9-0.3,1-0.7c2.4-11.4,12.5-20,24.8-20
		c11.9,0,21.9,8.2,24.6,19.1l-7.5-4c-0.4-0.2-0.9-0.1-1.1,0.3c-0.2,0.4-0.1,0.9,0.3,1.1l9.1,4.9c0.4,0.2,0.8,0.1,1.1-0.3l5.4-8.7
		c0.3-0.5-0.2-1.3-0.8-1.2c-0.2,0.1-0.4,0.2-0.5,0.4l-4.4,7.1C55.2,8.6,44.6,0,32,0L32,0z M6.1,30.2C6.1,30.2,6.1,30.2,6.1,30.2
		c-0.3,0.1-0.5,0.2-0.6,0.4l-5.4,8.7c-0.2,0.4-0.1,0.9,0.3,1.1c0.3,0.2,0.9,0.1,1.1-0.3L5.9,33C8.8,44.6,19.3,53.3,32,53.3
		c13,0,23.8-9.1,26.3-21.3c0.1-0.4-0.2-0.9-0.6-1c-0.4-0.1-0.9,0.2-0.9,0.6c-2.4,11.4-12.6,20-24.8,20c-11.9,0-21.9-8.2-24.6-19.2
		l7.5,4c0.4,0.2,0.9,0,1.1-0.3c0.2-0.4,0-0.9-0.3-1.1l-9.1-4.9C6.5,30.2,6.3,30.2,6.1,30.2L6.1,30.2z"/>
</g>
</svg>
