<?xml version="1.0" encoding="UTF-8"?>
<svg width="50px" height="32px" viewBox="0 0 50 32" version="1.1" xmlns="http://www.w3.org/2000/svg" xmlns:xlink="http://www.w3.org/1999/xlink">
    <!-- Generator: Sketch 49.1 (51147) - http://www.bohemiancoding.com/sketch -->
    <title>Group</title>
    <desc>Created with Sketch.</desc>
    <defs></defs>
    <g id="Page-1" stroke="none" stroke-width="1" fill="none" fill-rule="evenodd">
        <g id="Notes" transform="translate(-704.000000, -210.000000)" fill="#FFFFFF" fill-rule="nonzero">
            <g id="noun_121396_cc" transform="translate(704.000000, 210.000000)">
                <g id="Group">
                    <path d="M18.3333333,3.36842105 L15,3.36842105 L10,3.36842105 C4.47713217,3.36842105 0,7.89268093 0,13.4736842 L0,18.5263158 L0,25.2631579 C0,26.1932566 0.746154833,26.9473684 1.66666667,26.9473684 L8.33333333,26.9473684 C8.33333333,23.2266653 11.3180542,20.2105263 15,20.2105263 C17.0026652,20.2105263 18.7779745,21.1212994 20,22.5339227 L20,5.05263158 C20,4.12243015 19.2538452,3.36842105 18.3333333,3.36842105 Z M1.66666667,13.4736842 C1.66666667,8.83028379 5.40496833,5.05263158 10,5.05263158 L13.3333333,5.05263158 L13.3333333,11.7894737 C10.232544,11.7894737 7.61952717,13.9396588 6.87754317,16.8421053 L1.66666667,16.8421053 L1.66666667,13.4736842 Z M18.3333333,19.2441406 C17.2909547,18.7760074 16.15743,18.5263158 15,18.5263158 C10.9757487,18.5263158 7.60843917,21.4241366 6.8341065,25.2631579 L1.66666667,25.2631579 L1.66666667,18.5263158 L8.33333333,18.5263158 C8.33333333,15.7358141 10.5718993,13.4736842 13.3333333,13.4736842 L15,13.4736842 L15,5.05263158 L18.3333333,5.05263158 L18.3333333,19.2441406 Z" id="Shape"></path>
                    <path d="M49.1666667,25.2631579 L44.693807,25.2631579 C44.0050252,23.3052015 42.1738688,21.8947368 40,21.8947368 C37.8261312,21.8947368 35.9949748,23.3052015 35.306193,25.2631579 L22.5,25.2631579 C22.039795,25.2631579 21.6666667,25.640111 21.6666667,26.1052632 C21.6666667,26.5703124 22.039795,26.9473684 22.5,26.9473684 L35,26.9473684 C35,29.7378701 37.238566,32 40,32 C42.761434,32 45,29.7378701 45,26.9473684 L49.1666667,26.9473684 C49.6268717,26.9473684 50,26.5703124 50,26.1052632 C50,25.640111 49.6268717,25.2631579 49.1666667,25.2631579 Z M40,30.3157895 C38.162028,30.3157895 36.6666667,28.8046875 36.6666667,26.9473684 C36.6666667,25.0899466 38.162028,23.5789474 40,23.5789474 C41.837972,23.5789474 43.3333333,25.0899466 43.3333333,26.9473684 C43.3333333,28.8046875 41.837972,30.3157895 40,30.3157895 Z" id="Shape"></path>
                    <ellipse id="Oval" cx="40" cy="26.9473684" rx="1.66666667" ry="1.68421053"></ellipse>
                    <ellipse id="Oval" cx="15" cy="26.9473684" rx="1.66666667" ry="1.68421053"></ellipse>
                    <path d="M15,21.8947368 C12.238566,21.8947368 10,24.1568667 10,26.9473684 C10,29.7378701 12.238566,32 15,32 C17.761434,32 20,29.7378701 20,26.9473684 C20,24.1568667 17.761434,21.8947368 15,21.8947368 Z M15,30.3157895 C13.162028,30.3157895 11.6666667,28.8046875 11.6666667,26.9473684 C11.6666667,25.0899466 13.162028,23.5789474 15,23.5789474 C16.837972,23.5789474 18.3333333,25.0899466 18.3333333,26.9473684 C18.3333333,28.8046875 16.837972,30.3157895 15,30.3157895 Z" id="Shape"></path>
                    <path d="M48.3333333,0 L23.3333333,0 C22.4128215,0 21.6666667,0.754009095 21.6666667,1.68421053 L21.6666667,23.5789474 L34.2579142,23.5789474 C35.4128012,21.5737048 37.5386557,20.2105263 40,20.2105263 C42.4613443,20.2105263 44.5871988,21.5737048 45.7420858,23.5789474 L48.3333333,23.5789474 C49.2538452,23.5789474 50,22.8248355 50,21.8947368 L50,1.68421053 C50,0.754009095 49.2538452,0 48.3333333,0 Z M48.3333333,21.8947368 L46.6322835,21.8947368 C45.0671387,19.7957442 42.6060995,18.5263158 40,18.5263158 C37.3939005,18.5263158 34.9328613,19.7957442 33.3677165,21.8947368 L23.3333333,21.8947368 L23.3333333,1.68421053 L48.3333333,1.68421053 L48.3333333,21.8947368 Z" id="Shape"></path>
                </g>
            </g>
        </g>
    </g>
</svg>