<?xml version="1.0" encoding="UTF-8"?>
<svg width="50px" height="50px" viewBox="0 0 50 50" version="1.1" xmlns="http://www.w3.org/2000/svg" xmlns:xlink="http://www.w3.org/1999/xlink">
    <!-- Generator: Sketch 49.1 (51147) - http://www.bohemiancoding.com/sketch -->
    <title>Group</title>
    <desc>Created with Sketch.</desc>
    <defs></defs>
    <g id="Page-1" stroke="none" stroke-width="1" fill="none" fill-rule="evenodd">
        <g id="Notes" transform="translate(-470.000000, -221.000000)" fill="#FFFFFF" fill-rule="nonzero">
            <g id="noun_1328111_cc" transform="translate(470.000000, 221.000000)">
                <g id="Group">
                    <path d="M49.6268657,18.1343284 L25.8208955,0.895522388 C25.5970149,0.671641791 25.2238806,0.671641791 24.9253731,0.895522388 L1.04477612,18.2089552 C0.746268657,18.4328358 0.671641791,18.7313433 0.746268657,19.0298507 C0.820895522,19.3283582 1.11940299,19.5522388 1.49253731,19.5522388 L2.23880597,19.5522388 L2.23880597,24.5522388 C2.23880597,25 2.53731343,25.2985075 2.98507463,25.2985075 L3.95522388,25.2985075 L3.95522388,49.2537313 C3.95522388,49.7014925 4.25373134,50 4.70149254,50 L45.9701493,50 C46.4179104,50 46.7164179,49.7014925 46.7164179,49.2537313 L46.7164179,25.2985075 L47.761194,25.2985075 C48.2089552,25.2985075 48.5074627,25 48.5074627,24.5522388 L48.5074627,19.5522388 L49.2537313,19.5522388 C49.2537313,19.5522388 49.2537313,19.5522388 49.2537313,19.5522388 C49.7014925,19.5522388 50,19.2537313 50,18.8059701 C50,18.5074627 49.8507463,18.2089552 49.6268657,18.1343284 Z M25.3731343,2.3880597 L46.9402985,17.9850746 L3.80597015,17.9850746 L25.3731343,2.3880597 Z M45.2238806,48.5074627 L5.44776119,48.5074627 L5.44776119,25.2985075 L45.2238806,25.2985075 L45.2238806,48.5074627 Z M47.0149254,23.8059701 C43.0597015,23.8059701 8.43283582,23.8059701 3.73134328,23.8059701 L3.73134328,19.5522388 L47.0149254,19.5522388 L47.0149254,23.8059701 Z" id="Shape"></path>
                    <path d="M25.3731343,6.41791045 C22.4626866,6.41791045 20.0746269,8.80597015 20.0746269,11.7164179 C20.0746269,14.6268657 22.4626866,17.0149254 25.3731343,17.0149254 C28.2835821,17.0149254 30.6716418,14.6268657 30.6716418,11.7164179 C30.5970149,8.73134328 28.2835821,6.41791045 25.3731343,6.41791045 Z M25.3731343,15.4477612 C23.2835821,15.4477612 21.5671642,13.7313433 21.5671642,11.641791 C21.5671642,9.55223881 23.2835821,7.8358209 25.3731343,7.8358209 C27.4626866,7.8358209 29.1791045,9.55223881 29.1791045,11.641791 C29.1044776,13.7313433 27.4626866,15.4477612 25.3731343,15.4477612 Z" id="Shape"></path>
                    <path d="M6.56716418,22.3880597 L9.70149254,22.3880597 C10.1492537,22.3880597 10.4477612,22.0895522 10.4477612,21.641791 C10.4477612,21.1940299 10.1492537,20.8955224 9.70149254,20.8955224 L6.56716418,20.8955224 C6.11940299,20.8955224 5.82089552,21.1940299 5.82089552,21.641791 C5.82089552,22.0895522 6.11940299,22.3880597 6.56716418,22.3880597 Z" id="Shape"></path>
                    <path d="M13.4328358,22.3880597 L16.5671642,22.3880597 C17.0149254,22.3880597 17.3134328,22.0895522 17.3134328,21.641791 C17.3134328,21.1940299 17.0149254,20.8955224 16.5671642,20.8955224 L13.4328358,20.8955224 C12.9850746,20.8955224 12.6865672,21.1940299 12.6865672,21.641791 C12.6865672,22.0895522 13.0597015,22.3880597 13.4328358,22.3880597 Z" id="Shape"></path>
                    <path d="M20.3731343,22.3880597 L23.5074627,22.3880597 C23.9552239,22.3880597 24.2537313,22.0895522 24.2537313,21.641791 C24.2537313,21.1940299 23.9552239,20.8955224 23.5074627,20.8955224 L20.3731343,20.8955224 C19.9253731,20.8955224 19.6268657,21.1940299 19.6268657,21.641791 C19.6268657,22.0895522 19.9253731,22.3880597 20.3731343,22.3880597 Z" id="Shape"></path>
                    <path d="M27.238806,22.3880597 L30.3731343,22.3880597 C30.8208955,22.3880597 31.119403,22.0895522 31.119403,21.641791 C31.119403,21.1940299 30.8208955,20.8955224 30.3731343,20.8955224 L27.238806,20.8955224 C26.7910448,20.8955224 26.4925373,21.1940299 26.4925373,21.641791 C26.4925373,22.0895522 26.8656716,22.3880597 27.238806,22.3880597 Z" id="Shape"></path>
                    <path d="M34.1791045,22.3880597 L37.3134328,22.3880597 C37.761194,22.3880597 38.0597015,22.0895522 38.0597015,21.641791 C38.0597015,21.1940299 37.761194,20.8955224 37.3134328,20.8955224 L34.1791045,20.8955224 C33.7313433,20.8955224 33.4328358,21.1940299 33.4328358,21.641791 C33.4328358,22.0895522 33.7313433,22.3880597 34.1791045,22.3880597 Z" id="Shape"></path>
                    <path d="M41.0447761,22.3880597 L44.1791045,22.3880597 C44.6268657,22.3880597 44.9253731,22.0895522 44.9253731,21.641791 C44.9253731,21.1940299 44.6268657,20.8955224 44.1791045,20.8955224 L41.0447761,20.8955224 C40.5970149,20.8955224 40.2985075,21.1940299 40.2985075,21.641791 C40.2985075,22.0895522 40.6716418,22.3880597 41.0447761,22.3880597 Z" id="Shape"></path>
                    <path d="M8.28358209,46.9402985 L19.7014925,46.9402985 L31.119403,46.9402985 L42.5373134,46.9402985 C42.9850746,46.9402985 43.2835821,46.641791 43.2835821,46.1940299 L43.2835821,40.4477612 C43.2835821,40 42.9850746,39.7014925 42.5373134,39.7014925 L31.7910448,39.7014925 L31.7910448,34.7014925 C31.7910448,34.2537313 31.4925373,33.9552239 31.0447761,33.9552239 L20.3731343,33.9552239 L20.3731343,28.9552239 C20.3731343,28.5074627 20.0746269,28.2089552 19.6268657,28.2089552 L8.28358209,28.2089552 C7.8358209,28.2089552 7.53731343,28.5074627 7.53731343,28.9552239 C7.53731343,34.5522388 7.53731343,39.4776119 7.53731343,46.1940299 C7.53731343,46.641791 7.8358209,46.9402985 8.28358209,46.9402985 Z M18.880597,39.7761194 L9.02985075,39.7761194 L9.02985075,35.5223881 L18.9552239,35.5223881 L18.9552239,39.7761194 L18.880597,39.7761194 Z M9.02985075,41.2686567 L18.9552239,41.2686567 L18.9552239,45.5223881 L9.02985075,45.5223881 L9.02985075,41.2686567 Z M20.3731343,41.2686567 L30.2985075,41.2686567 L30.2985075,45.5223881 L20.3731343,45.5223881 L20.3731343,41.2686567 Z M41.7164179,45.4477612 L31.7910448,45.4477612 L31.7910448,41.1940299 L41.7164179,41.1940299 L41.7164179,45.4477612 Z M30.2985075,39.7761194 L20.3731343,39.7761194 L20.3731343,35.5223881 L30.2985075,35.5223881 L30.2985075,39.7761194 Z M9.02985075,29.7761194 L18.9552239,29.7761194 L18.9552239,34.0298507 L9.02985075,34.0298507 L9.02985075,29.7761194 Z" id="Shape"></path>
                </g>
            </g>
        </g>
    </g>
</svg>