<?xml version="1.0" encoding="UTF-8"?>
<svg width="24px" height="24px" viewBox="0 0 24 24" version="1.1" xmlns="http://www.w3.org/2000/svg" xmlns:xlink="http://www.w3.org/1999/xlink">
    <!-- Generator: Sketch 48.2 (47327) - http://www.bohemiancoding.com/sketch -->
    <title>noun_858319_cc</title>
    <desc>Created with Sketch.</desc>
    <defs></defs>
    <g id="Screen-3---Supply-Chain-Screen" stroke="none" stroke-width="1" fill="none" fill-rule="evenodd" transform="translate(-1305.000000, -134.000000)">
        <g id="Group-2" transform="translate(754.000000, 119.000000)" fill="#4D5AFF" fill-rule="nonzero">
            <g id="noun_858319_cc" transform="translate(551.000000, 15.000000)">
                <path d="M11.9997066,0 C5.38304322,0 0,5.38327079 0,11.9998533 C0,18.6167292 5.38304322,24 11.9997066,24 C18.6169568,24 24,18.6167292 24,11.9998533 C24,5.38327079 18.6169568,0 11.9997066,0 Z M11.9997066,22.826535 C6.03021709,22.826535 1.17347937,17.9695633 1.17347937,11.9998533 C1.17347937,6.03014338 6.03021709,1.17346502 11.9997066,1.17346502 C17.9697829,1.17346502 22.8265206,6.03014338 22.8265206,11.9998533 C22.8265206,17.9695633 17.9697829,22.826535 11.9997066,22.826535 Z" id="Shape"></path>
                <path d="M11.9977535,16 C11.4476893,16 11,16.4499358 11,17.0028883 C11,17.5529525 11.4476893,18 11.9977535,18 C12.5503851,18 13,17.5526316 13,17.0028883 C13,16.4499358 12.5503851,16 11.9977535,16 Z M11.9977535,17.283697 C11.8427471,17.283697 11.716303,17.1575738 11.716303,17.0028883 C11.716303,16.8449936 11.8427471,16.716303 11.9977535,16.716303 C12.1553273,16.716303 12.284018,16.8446727 12.284018,17.0028883 C12.284018,17.1575738 12.1553273,17.283697 11.9977535,17.283697 Z" id="Shape"></path>
                <path d="M11.9982166,7 C10.3451918,7 9,8.39501779 9,10.1097509 C9,10.4240569 9.24582743,10.6791459 9.54872193,10.6791459 C9.85161644,10.6791459 10.0974439,10.4240569 10.0974439,10.1097509 C10.0974439,9.0230605 10.9501577,8.13879004 11.9982166,8.13879004 C13.048196,8.13879004 13.9025561,9.0227758 13.9025561,10.1097509 C13.9025561,11.199573 13.048196,12.086121 11.9982166,12.086121 C11.6953221,12.086121 11.4494947,12.34121 11.4494947,12.655516 L11.4494947,14.430605 C11.4494947,14.744911 11.6953221,15 11.9982166,15 C12.3011111,15 12.5469386,14.744911 12.5469386,14.430605 L12.5469386,13.1702491 C13.9406923,12.9017794 15,11.6325979 15,10.1097509 C15.0002743,8.39501779 13.6534363,7 11.9982166,7 Z" id="Shape"></path>
            </g>
        </g>
    </g>
</svg>